<svg xmlns="http://www.w3.org/2000/svg" width="71" height="49" viewBox="0 0 71 49">
  <g id="Group_17916" data-name="Group 17916" transform="translate(0 0.292)">
    <rect id="Rectangle_2338" data-name="Rectangle 2338" width="71" height="49" rx="2" transform="translate(0 -0.292)" fill="#fff"/>
    <g id="Afterpay_Logo_Black" transform="translate(7.04 19.946)">
      <path id="Path_15879" data-name="Path 15879" d="M1272.261,311.174l-1.74-1-1.765-1.011a1.753,1.753,0,0,0-2.626,1.519v.226a.341.341,0,0,0,.176.3l.82.468a.34.34,0,0,0,.508-.3v-.538a.347.347,0,0,1,.518-.3l1.609.925,1.6.92a.345.345,0,0,1,0,.6l-1.6.92-1.609.925a.347.347,0,0,1-.518-.3v-.267a1.752,1.752,0,0,0-2.626-1.519l-1.765,1.011-1.74,1a1.756,1.756,0,0,0,0,3.043l1.74,1,1.765,1.011a1.753,1.753,0,0,0,2.626-1.519v-.226a.341.341,0,0,0-.176-.3l-.82-.468a.34.34,0,0,0-.508.3v.538a.347.347,0,0,1-.518.3L1264,317.5l-1.6-.92a.345.345,0,0,1,0-.6l1.6-.92,1.609-.925a.347.347,0,0,1,.518.3v.267a1.751,1.751,0,0,0,2.626,1.519l1.765-1.011,1.74-1A1.756,1.756,0,0,0,1272.261,311.174Z" transform="translate(-1215.362 -308.933)"/>
      <g id="Group_17857" data-name="Group 17857" transform="translate(38.845 2.573)">
        <path id="Path_15880" data-name="Path 15880" d="M1139.639,360.1l-4.074,8.414h-1.69l1.524-3.143L1133,360.1h1.735l1.539,3.53,1.68-3.53Z" transform="translate(-1133 -360.1)"/>
      </g>
      <g id="Group_17859" data-name="Group 17859" transform="translate(0 0.129)">
        <g id="Group_17858" data-name="Group 17858">
          <path id="Path_15881" data-name="Path 15881" d="M365.352,361.093a1.627,1.627,0,1,0-1.624,1.71,1.632,1.632,0,0,0,1.624-1.71m.015,2.987v-.775a2.392,2.392,0,0,1-1.886.87,2.916,2.916,0,0,1-2.882-3.083A2.971,2.971,0,0,1,363.517,358a2.389,2.389,0,0,1,1.851.86v-.754h1.469v5.975Z" transform="translate(-360.6 -355.661)"/>
          <path id="Path_15882" data-name="Path 15882" d="M504.942,318.591c-.513,0-.659-.191-.659-.694v-2.65h.945v-1.3h-.945v-1.458h-1.5v1.458h-1.941v-.593c0-.5.191-.694.719-.694h.332V311.5h-.724c-1.242,0-1.831.407-1.831,1.65v.8H498.5v1.3h.835v4.672h1.5v-4.672h1.941v2.927c0,1.217.468,1.745,1.685,1.745h.775v-1.328Z" transform="translate(-491.565 -311.5)"/>
          <path id="Path_15883" data-name="Path 15883" d="M647.766,360.46a1.432,1.432,0,0,0-1.484-1.242,1.473,1.473,0,0,0-1.5,1.242Zm-3,.93a1.487,1.487,0,0,0,1.544,1.388,1.578,1.578,0,0,0,1.408-.774h1.544a3.12,3.12,0,0,1-6.06-1,3.09,3.09,0,1,1,6.181,0,1.882,1.882,0,0,1-.035.382Z" transform="translate(-628.988 -355.566)"/>
          <path id="Path_15884" data-name="Path 15884" d="M867.132,361a1.627,1.627,0,1,0-1.624,1.71,1.657,1.657,0,0,0,1.624-1.71m-4.732,5.426v-8.414h1.469v.775a2.374,2.374,0,0,1,1.886-.885,2.941,2.941,0,0,1,2.882,3.083,2.971,2.971,0,0,1-2.917,3.093,2.31,2.31,0,0,1-1.806-.8v3.143H862.4Z" transform="translate(-837.164 -355.566)"/>
          <path id="Path_15885" data-name="Path 15885" d="M1001.952,361.093a1.626,1.626,0,1,0-1.624,1.71,1.632,1.632,0,0,0,1.624-1.71m.015,2.987v-.775a2.392,2.392,0,0,1-1.886.87,2.916,2.916,0,0,1-2.882-3.083,2.971,2.971,0,0,1,2.917-3.093,2.389,2.389,0,0,1,1.851.86v-.754h1.468v5.975Z" transform="translate(-965.185 -355.661)"/>
          <path id="Path_15886" data-name="Path 15886" d="M781.873,358.594a1.478,1.478,0,0,1,1.293-.694,1.462,1.462,0,0,1,.644.136v1.524a1.887,1.887,0,0,0-1.061-.272,1.052,1.052,0,0,0-.83,1.157v3.536H780.4v-5.97h1.469v.583Z" transform="translate(-759.288 -355.566)"/>
        </g>
      </g>
    </g>
  </g>
</svg>
