<svg xmlns="http://www.w3.org/2000/svg" width="36.287" height="21.589" viewBox="0 0 36.287 21.589"><defs><style>.a{fill-rule:evenodd;}</style></defs><path d="M22.077,18.373a3.711,3.711,0,0,0,0-.919h9.674V.919H12.919V17.455h1.866a3.711,3.711,0,0,0,0,.919H12V11.024h.919v-.919H12V9.187h.919V8.268H12V7.349h.919V6.431H12V0H32.67V18.373Zm-3.187-6.66.854-5.282H21.72L22.449,9.2H22.5a5.8,5.8,0,0,1,.133-.7l.595-2.074H25.18l.869,5.282H24.193L23.934,8.82H23.9a4.4,4.4,0,0,1-.126.525l-.763,2.368H21.888L21.2,9.478a3.639,3.639,0,0,1-.119-.659H21.02c-.014.21-.028.427-.049.638l-.224,2.256Z" transform="translate(-6.488)"/><path class="a" d="M11.943,28.077A3.675,3.675,0,1,1,15.617,24.4,3.675,3.675,0,0,1,11.943,28.077Zm0-.919A2.756,2.756,0,1,0,9.187,24.4,2.756,2.756,0,0,0,11.943,27.158Zm18.833.919A3.675,3.675,0,1,1,34.45,24.4,3.675,3.675,0,0,1,30.775,28.077Zm0-.919A2.756,2.756,0,1,0,28.019,24.4,2.756,2.756,0,0,0,30.775,27.158ZM0,12H6.431v.919H0Zm1.837,1.837H6.431v.919H1.837Zm1.837,1.837H6.431v.919H3.675Zm.919,1.837H6.431v.919H4.593Z" transform="translate(0 -6.488)"/><path d="M64.158,21.617h1.866v-9.66L60.792,6H55V21.617h1.866a3.711,3.711,0,0,1,0-.919h-.947V6.919h4.457L65.105,12.3v8.4h-.947A3.711,3.711,0,0,1,64.158,21.617Z" transform="translate(-29.737 -3.244)"/></svg>