<?xml version="1.0" encoding="utf-8"?>
<!-- Generator: Adobe Illustrator 21.0.2, SVG Export Plug-In . SVG Version: 6.00 Build 0)  -->
<svg version="1.1" id="Layer_1" xmlns="http://www.w3.org/2000/svg" xmlns:xlink="http://www.w3.org/1999/xlink" x="0px" y="0px"
	 viewBox="0 0 20 19" style="enable-background:new 0 0 20 19;" xml:space="preserve">
<g>
	<path d="M10,19l-1.5-1.4c-4.8-4.5-6.5-6.3-7.6-8.5C0.3,8,0,6.9,0,5.7C0,2.5,2.4,0,5.5,0C7.2,0,8.9,0.8,10,2.2
		C11.1,0.8,12.8,0,14.5,0C17.6,0,20,2.5,20,5.7c0,1.2-0.3,2.3-0.9,3.4c-1.1,2.2-2.8,4-7.7,8.5L10,19z M5.5,2C3.5,2,2,3.6,2,5.7
		c0,0.8,0.2,1.6,0.7,2.5c1,1.8,2.3,3.3,7.2,8l0.1,0.1l0.1-0.1c4.9-4.6,6.3-6.1,7.2-8C17.8,7.3,18,6.5,18,5.7C18,3.6,16.5,2,14.5,2
		c-1.1,0-2.2,0.5-3,1.4L10,5.3L8.5,3.4C7.7,2.5,6.6,2,5.5,2z"/>
</g>
</svg>
