<?xml version="1.0" encoding="utf-8"?>
<!-- Generator: Adobe Illustrator 21.0.2, SVG Export Plug-In . SVG Version: 6.00 Build 0)  -->
<svg version="1.1" id="Layer_1" xmlns="http://www.w3.org/2000/svg" xmlns:xlink="http://www.w3.org/1999/xlink" x="0px" y="0px"
	 viewBox="0 0 50 50" style="enable-background:new 0 0 50 50;" xml:space="preserve">
<style type="text/css">
	.st0{fill:#FB4D50;}
	.st1{fill:#FFFFFF;}
</style>
<g>
	<circle class="st0" cx="25" cy="25" r="25"/>
</g>
<g>
	<path class="st1" d="M11.5,27.9l0.8-0.8c0.6,0.7,1.3,1.1,2.1,1.1c0.4,0,0.7-0.1,1-0.4s0.4-0.5,0.4-0.9c0-0.2-0.1-0.5-0.2-0.6
		c-0.1-0.2-0.3-0.3-0.5-0.5s-0.4-0.2-0.7-0.3s-0.5-0.2-0.8-0.3s-0.5-0.3-0.7-0.4c-0.7-0.5-1.1-1.1-1.1-1.8c0-0.6,0.2-1.1,0.7-1.6
		s1.1-0.7,1.8-0.7c0.8,0,1.6,0.3,2.3,0.8l-0.7,0.9c-0.5-0.4-1-0.6-1.5-0.6c-0.4,0-0.7,0.1-1,0.3s-0.4,0.5-0.4,0.8
		c0,0.2,0.1,0.4,0.2,0.5s0.3,0.3,0.5,0.4s0.4,0.2,0.7,0.3s0.5,0.2,0.8,0.3s0.5,0.3,0.7,0.4c0.7,0.5,1.1,1.1,1.1,1.9
		c0,0.7-0.2,1.3-0.7,1.8s-1.1,0.7-1.9,0.7c-0.6,0-1.1-0.1-1.6-0.4S11.8,28.4,11.5,27.9z"/>
	<path class="st1" d="M17.8,29.2l3.5-8.4h0.8l3.5,8.4h-1.2L23.5,27H20l-0.9,2.2H17.8z M20.5,25.9H23l-1.3-3.1L20.5,25.9z"/>
	<path class="st1" d="M27.1,29.2v-8.4h1.2v7.3H32v1.1H27.1z"/>
	<path class="st1" d="M33.6,29.2v-8.4h4.8v1.1h-3.6v2.2h2.8v1.1h-2.8v2.8h3.7v1.1H33.6z"/>
</g>
</svg>
