<svg width="96" height="31" viewBox="0 0 96 31" xmlns="http://www.w3.org/2000/svg"><title>Red on white 7</title><g id="Page-1" fill="none" fill-rule="evenodd"><g id="Mobile-(open)"><g id="Group-2-+-Line-+-Line-2-+-Line-3"><g id="Group-2"><g id="Red-on-white-7"><g id="Red-on-white-6"><g id="Red-on-white"><path d="M47.8 30.934c26.31 0 47.646-6.77 47.646-15.12S74.11.694 47.8.694C21.48.694.152 7.464.152 15.814s21.33 15.12 47.646 15.12" id="Fill-3" fill="#DA2C2A"/><path d="M18.727 15.916c0-5.526 4.28-8.838 9.546-8.838 5.266 0 9.547 3.312 9.547 8.838 0 5.413-4.304 8.928-9.547 8.928s-9.546-3.515-9.546-8.928zm12.775-.092c0-1.965-1.33-3.31-3.23-3.31-1.897 0-3.226 1.345-3.226 3.31 0 1.83 1.235 3.36 3.227 3.36 1.994 0 3.23-1.53 3.23-3.36z" id="Fill-5" fill="#FFF"/><path d="M18.727 15.916c0-5.526 4.28-8.838 9.546-8.838 5.266 0 9.547 3.312 9.547 8.838 0 5.413-4.304 8.928-9.547 8.928s-9.546-3.515-9.546-8.928zm12.775-.092c0-1.965-1.33-3.31-3.23-3.31-1.897 0-3.226 1.345-3.226 3.31 0 1.83 1.235 3.36 3.227 3.36 1.994 0 3.23-1.53 3.23-3.36z" id="Stroke-6" stroke="#DA2C2A" stroke-width="2.164"/><path d="M76.964 16.027c0 5.527-4.28 8.837-9.55 8.837-5.263 0-9.543-3.31-9.543-8.837 0-5.412 4.3-8.928 9.545-8.928 5.244 0 9.55 3.515 9.55 8.927zm-12.775.09c0 1.966 1.327 3.312 3.225 3.312 1.904 0 3.227-1.347 3.227-3.312 0-1.826-1.232-3.356-3.227-3.356-1.99 0-3.226 1.53-3.226 3.356z" id="Fill-7" fill="#FFF"/><path d="M76.964 16.027c0 5.527-4.28 8.837-9.55 8.837-5.263 0-9.543-3.31-9.543-8.837 0-5.412 4.3-8.928 9.545-8.928 5.244 0 9.55 3.515 9.55 8.927zm-12.775.09c0 1.966 1.327 3.312 3.225 3.312 1.904 0 3.227-1.347 3.227-3.312 0-1.826-1.232-3.356-3.227-3.356-1.99 0-3.226 1.53-3.226 3.356z" id="Stroke-8" stroke="#DA2C2A" stroke-width="2.164"/><path d="M39.765 10.788l13.095 13.06 3.043-3.034L42.805 7.75l-3.04 3.038" id="Fill-9" fill="#FFF"/><path d="M55.933 10.867L42.84 23.927l-3.046-3.034L52.89 7.833l3.043 3.034" id="Fill-11" fill="#FFF"/></g></g></g></g></g></g></g></svg>