<?xml version="1.0" encoding="utf-8"?>
<!-- Generator: Adobe Illustrator 21.0.2, SVG Export Plug-In . SVG Version: 6.00 Build 0)  -->
<svg version="1.1" id="Layer_1" xmlns="http://www.w3.org/2000/svg" xmlns:xlink="http://www.w3.org/1999/xlink" x="0px" y="0px"
	 viewBox="0 0 100 60" style="enable-background:new 0 0 100 60;" xml:space="preserve">
<style type="text/css">
	.st0{fill:#FFFFFF;}
	.st1{fill:#FF5F00;}
	.st2{fill:#EB001B;}
	.st3{fill:#F79E1B;}
</style>
<g>
	<path d="M4,0h92c2.2,0,4,1.8,4,4v52c0,2.2-1.8,4-4,4H4c-2.2,0-4-1.8-4-4V4C0,1.8,1.8,0,4,0z"/>
	<g>
		<path class="st0" d="M30.1,54.7v-3.4c0-0.6-0.1-1.1-0.5-1.6c-0.4-0.4-0.9-0.6-1.5-0.6c-0.7,0-1.4,0.3-1.8,1c-0.4-0.6-1-1-1.7-1
			c-0.6,0-1.2,0.3-1.6,0.8v-0.7H22v5.5h1v-3.2c0-0.4,0.1-0.8,0.3-1c0.3-0.3,0.6-0.4,1-0.4c0.7,0,1.2,0.5,1.2,1.4v3.2h1v-3.2
			c0-0.4,0.1-0.8,0.3-1c0.3-0.3,0.6-0.4,1-0.4c0.8,0,1.2,0.5,1.2,1.4v3.2L30.1,54.7L30.1,54.7z M46.9,49.2h-1.9v-1.7H44v1.7h-1.1v1
			H44v2.6c0,1.3,0.4,2,1.7,2c0.5,0,1-0.1,1.4-0.4l-0.3-1c-0.3,0.2-0.6,0.3-1,0.3c-0.5,0-0.8-0.4-0.8-0.9v-2.6h1.9L46.9,49.2
			L46.9,49.2z M56.5,49.1c-0.6,0-1.1,0.3-1.4,0.8v-0.7h-1v5.5h1v-3.1c0-0.9,0.4-1.5,1.1-1.5c0.2,0,0.5,0,0.7,0.1l0.3-1
			C57.1,49.1,56.8,49.1,56.5,49.1C56.5,49.1,56.5,49.1,56.5,49.1z M42,49.7c-0.6-0.4-1.4-0.6-2.1-0.6c-1.3,0-2.1,0.7-2.1,1.7
			c0,0.9,0.6,1.4,1.7,1.6l0.5,0.1c0.6,0.1,1,0.3,1,0.6c0,0.4-0.5,0.7-1.2,0.7c-0.6,0-1.2-0.2-1.7-0.6l-0.5,0.9
			c0.6,0.5,1.4,0.7,2.2,0.7c1.5,0,2.3-0.7,2.3-1.8c0-1-0.6-1.4-1.8-1.6l-0.5-0.1c-0.5-0.1-0.9-0.2-0.9-0.6c0-0.3,0.4-0.7,1-0.7
			c0.6,0,1.1,0.2,1.6,0.5C41.6,50.6,42,49.7,42,49.7z M57.7,51.9c0,0.8,0.2,1.5,0.8,2.1c0.5,0.5,1.2,0.8,2,0.8
			c0.7,0,1.3-0.2,1.9-0.7l-0.5-0.9c-0.4,0.3-0.9,0.5-1.3,0.5c-0.9-0.1-1.6-0.9-1.6-1.9c0-1,0.7-1.8,1.6-1.9c0.5,0,1,0.2,1.3,0.5
			l0.5-0.9c-0.5-0.5-1.2-0.7-1.9-0.7c-0.7,0-1.4,0.3-1.9,0.8C57.9,50.4,57.7,51.2,57.7,51.9L57.7,51.9z M50.4,49.1
			c-1.5,0-2.6,1.1-2.6,2.9c0,0.8,0.2,1.5,0.7,2.1c0.5,0.5,1.2,0.8,1.9,0.8c0.8,0,1.5-0.3,2.1-0.8l-0.5-0.8c-0.4,0.4-0.9,0.6-1.5,0.6
			c-0.8,0-1.5-0.6-1.6-1.4h3.9v-0.5C52.9,50.2,51.9,49.1,50.4,49.1L50.4,49.1L50.4,49.1z M50.4,50.1c0.4,0,0.7,0.1,1,0.4
			c0.3,0.3,0.4,0.6,0.4,1H49C49.1,50.7,49.7,50.1,50.4,50.1L50.4,50.1z M36.4,52v-2.7h-1v0.7c-0.4-0.5-1-0.8-1.7-0.8
			c-1.5,0-2.7,1.3-2.7,2.9c0,1.6,1.2,2.9,2.7,2.9c0.7,0,1.3-0.3,1.7-0.8v0.7h1C36.4,54.7,36.4,52,36.4,52z M32.3,52
			c0-0.5,0.1-0.9,0.4-1.3c0.3-0.4,0.7-0.6,1.2-0.6c0.9,0.1,1.6,0.9,1.6,1.9c0,1-0.7,1.8-1.6,1.9c-0.5,0-0.9-0.2-1.2-0.6
			C32.4,52.9,32.2,52.4,32.3,52C32.3,52,32.3,52,32.3,52z M72.1,49.1c-0.6,0-1.1,0.3-1.4,0.8v-0.7h-1v5.5h1v-3.1
			c0-0.9,0.4-1.5,1.1-1.5c0.2,0,0.5,0,0.7,0.1l0.3-1C72.7,49.1,72.4,49.1,72.1,49.1L72.1,49.1L72.1,49.1z M80.5,53.9
			c0.2,0,0.4,0.1,0.5,0.3c0.1,0.1,0.1,0.3,0,0.4c-0.1,0.2-0.3,0.3-0.5,0.3c-0.2,0-0.4-0.1-0.5-0.3c-0.1-0.1-0.1-0.3,0-0.4
			c0.1-0.1,0.2-0.2,0.3-0.3C80.3,53.9,80.4,53.9,80.5,53.9L80.5,53.9z M80.5,54.9c0.1,0,0.1,0,0.2,0c0,0,0.1-0.1,0.1-0.1
			c0.1-0.2,0.1-0.4,0-0.6c0,0-0.1-0.1-0.1-0.1c-0.1,0-0.2,0-0.3,0c0,0-0.1,0.1-0.1,0.1c-0.1,0.2-0.1,0.4,0,0.6c0,0,0.1,0.1,0.1,0.1
			C80.4,54.9,80.4,54.9,80.5,54.9C80.5,54.9,80.5,54.9,80.5,54.9z M80.5,54.2c0.1,0,0.1,0,0.1,0c0,0,0.1,0.1,0,0.1c0,0,0,0.1,0,0.1
			c0,0-0.1,0-0.1,0.1l0.2,0.2h-0.1l-0.1-0.2h0v0.2h-0.1v-0.5C80.3,54.2,80.5,54.2,80.5,54.2z M80.4,54.3v0.1h0.1c0,0,0,0,0.1,0
			c0,0,0,0,0-0.1c0,0,0,0,0-0.1c0,0,0,0-0.1,0C80.5,54.3,80.4,54.3,80.4,54.3z M68.2,52v-2.7h-1v0.7c-0.4-0.5-1-0.8-1.7-0.8
			c-1.5,0-2.7,1.3-2.7,2.9c0,1.6,1.2,2.9,2.7,2.9c0.7,0,1.3-0.3,1.7-0.8v0.7h1C68.2,54.7,68.2,52,68.2,52z M64,52
			c0-0.5,0.1-0.9,0.4-1.3c0.3-0.4,0.7-0.6,1.2-0.6c0.9,0.1,1.6,0.9,1.6,1.9s-0.7,1.8-1.6,1.9c-0.5,0-0.9-0.2-1.2-0.6
			C64.1,52.9,63.9,52.4,64,52C64,52,64,52,64,52z M78.6,52v-5h-1v2.9c-0.4-0.5-1-0.8-1.7-0.8c-1.5,0-2.7,1.3-2.7,2.9
			c0,1.6,1.2,2.9,2.7,2.9c0.7,0,1.3-0.3,1.7-0.8v0.7h1C78.6,54.7,78.6,52,78.6,52z M74.4,52c0-0.5,0.1-0.9,0.4-1.3
			c0.3-0.4,0.7-0.6,1.2-0.6c0.9,0.1,1.5,0.9,1.5,1.9c0,0.9-0.7,1.7-1.5,1.8c-0.5,0-0.9-0.2-1.2-0.5C74.5,52.9,74.4,52.4,74.4,52
			C74.4,52,74.4,52,74.4,52z"/>
		<path class="st1" d="M41.5,9.5h17.1v31H41.5V9.5z"/>
		<path class="st2" d="M42.6,25c0-6.1,2.7-11.8,7.5-15.5c-8-6.4-19.5-5.4-26.4,2.1s-6.9,19.2,0,26.8s18.4,8.5,26.4,2.1
			C45.4,36.7,42.6,31,42.6,25L42.6,25z"/>
		<path class="st3" d="M79.8,37.2v-0.6h0.3v-0.1h-0.6v0.1h0.3v0.6H79.8L79.8,37.2z M81.1,37.2v-0.8h-0.2L80.7,37l-0.2-0.5h-0.2v0.8
			h0.1v-0.6l0.2,0.5h0.1l0.2-0.5v0.6C80.9,37.2,81.1,37.2,81.1,37.2z M81.7,25c0,7.6-4.3,14.4-11,17.7C64,46,55.9,45.1,50.1,40.5
			c4.7-3.7,7.5-9.5,7.5-15.5c0-6.1-2.8-11.8-7.5-15.5C55.9,4.8,64,3.9,70.7,7.2C77.4,10.5,81.7,17.4,81.7,25
			C81.7,25,81.7,25,81.7,25z"/>
	</g>
</g>
</svg>
