<svg xmlns="http://www.w3.org/2000/svg" xmlns:xlink="http://www.w3.org/1999/xlink" width="100" height="60" viewBox="0 0 100 60">
    <defs>
        <rect id="a" width="100" height="60" rx="4"/>
    </defs>
    <g fill="none" fill-rule="evenodd">
        <g>
            <use fill="#FFF" xlink:href="#a"/>
            <rect width="99" height="59" x=".5" y=".5" stroke="#E5E5E5" rx="4"/>
        </g>
        <path fill="#2790C3" d="M69.67 40.465l-1.39 8.976a.285.285 0 0 0 .279.331h1.398a.472.472 0 0 0 .464-.403l1.37-8.815a.285.285 0 0 0-.279-.331H69.95a.283.283 0 0 0-.28.242M65.5 46.607c-.157.94-.892 1.572-1.83 1.572-.47 0-.847-.154-1.089-.445-.24-.288-.33-.699-.254-1.156.146-.932.894-1.584 1.817-1.584.46 0 .834.155 1.081.449.248.295.346.708.275 1.164m2.26-3.205h-1.622a.284.284 0 0 0-.279.242l-.07.46-.114-.166c-.351-.517-1.134-.69-1.915-.69-1.791 0-3.321 1.378-3.619 3.31-.155.965.065 1.887.604 2.53.494.59 1.2.837 2.041.837 1.444 0 2.245-.942 2.245-.942l-.073.458a.285.285 0 0 0 .28.33h1.459c.232 0 .429-.17.465-.402l.876-5.635a.285.285 0 0 0-.279-.332M58.03 43.442c-.184 1.234-1.112 1.234-2.01 1.234h-.51l.358-2.304a.283.283 0 0 1 .278-.242h.234c.612 0 1.189 0 1.486.354.178.211.232.525.165.958m-.39-3.22h-3.386a.473.473 0 0 0-.465.403l-1.37 8.816a.285.285 0 0 0 .28.33h1.737c.162 0 .3-.119.325-.281l.388-2.5a.472.472 0 0 1 .465-.403h1.071c2.23 0 3.517-1.096 3.853-3.268.152-.95.007-1.696-.431-2.218-.482-.575-1.335-.879-2.468-.879"/>
        <path fill="#27346A" d="M52.246 43.402h-1.63a.467.467 0 0 0-.388.21l-2.248 3.362-.953-3.23a.472.472 0 0 0-.45-.342h-1.602a.286.286 0 0 0-.267.38l1.794 5.348-1.688 2.417a.287.287 0 0 0 .23.453h1.628a.47.47 0 0 0 .387-.206l5.42-7.942a.287.287 0 0 0-.233-.45M41.352 46.607c-.156.94-.891 1.572-1.83 1.572-.47 0-.846-.154-1.088-.445-.24-.288-.33-.699-.254-1.156.146-.932.893-1.584 1.817-1.584.46 0 .834.155 1.08.449.249.295.346.708.275 1.164m2.26-3.205H41.99a.284.284 0 0 0-.28.242l-.07.46-.114-.166c-.351-.517-1.134-.69-1.915-.69-1.791 0-3.321 1.378-3.619 3.31-.155.965.065 1.887.604 2.53.495.59 1.2.837 2.042.837 1.444 0 2.244-.942 2.244-.942l-.072.458a.285.285 0 0 0 .279.33h1.46c.231 0 .428-.17.464-.402l.877-5.635a.285.285 0 0 0-.28-.332M33.883 43.442c-.185 1.234-1.113 1.234-2.01 1.234h-.511l.358-2.304a.283.283 0 0 1 .278-.242h.235c.61 0 1.188 0 1.486.354.178.211.231.525.164.958m-.39-3.22h-3.386a.473.473 0 0 0-.465.403l-1.369 8.816a.285.285 0 0 0 .279.33h1.617a.473.473 0 0 0 .464-.402l.37-2.379a.472.472 0 0 1 .464-.403h1.071c2.23 0 3.518-1.096 3.854-3.268.151-.95.006-1.696-.432-2.218-.481-.575-1.335-.879-2.467-.879"/>
        <g>
            <path fill="#27346A" d="M58.97 12.123C57.695 10.637 55.386 10 52.432 10H43.86c-.604 0-1.117.449-1.212 1.057l-3.57 23.108a.746.746 0 0 0 .728.869h5.292l1.329-8.606-.041.27a1.231 1.231 0 0 1 1.208-1.058h2.514c4.94 0 8.809-2.048 9.939-7.974a13.2 13.2 0 0 0 .088-.512c-.143-.077-.143-.077 0 0 .336-2.19-.003-3.681-1.163-5.03"/>
            <path fill="#2790C3" d="M60.112 17.082c-.026.167-.054.336-.088.51-1.128 5.901-4.991 7.942-9.925 7.942h-2.512c-.602 0-1.111.447-1.205 1.053l-1.651 10.656a.651.651 0 0 0 .635.757h4.455c.527 0 .976-.39 1.058-.92l.043-.232.84-5.417.054-.3c.082-.53.531-.92 1.058-.92h.667c4.315 0 7.694-1.785 8.682-6.947.412-2.157.199-3.959-.892-5.224-.33-.383-.74-.7-1.22-.958"/>
            <path fill="#1F264F" d="M58.93 16.603a8.112 8.112 0 0 0-.532-.139 9.9 9.9 0 0 0-.565-.11 13.687 13.687 0 0 0-2.214-.164h-6.71c-.166 0-.323.038-.463.107-.31.152-.54.45-.596.815l-1.426 9.206-.041.269a1.227 1.227 0 0 1 1.205-1.053H50.1c4.934 0 8.796-2.04 9.925-7.941.033-.175.061-.344.087-.51a6.035 6.035 0 0 0-1.181-.48"/>
        </g>
    </g>
</svg>
