<svg xmlns="http://www.w3.org/2000/svg" width="70" height="49" viewBox="0 0 70 49">
  <g id="Group_17919" data-name="Group 17919" transform="translate(0 0.292)">
    <rect id="Rectangle_2340" data-name="Rectangle 2340" width="70" height="49" rx="2" transform="translate(0 -0.292)" fill="#fff"/>
    <g id="PayPal" transform="translate(25.267 13.677)">
      <path id="Path_176" data-name="Path 176" d="M3.967,22.285l.245-2.511-.546-.02H1.061L2.872,1.227c.011-.117.074-.2.147-.2H7.412A3.1,3.1,0,0,1,10.4,2.48a4.271,4.271,0,0,1,.479,1.449,8.393,8.393,0,0,1,0,2l-.006.058V6.5l.246.225a2.143,2.143,0,0,1,.5.614,3.867,3.867,0,0,1,.4,1.465,9.939,9.939,0,0,1-.058,2.125,10.74,10.74,0,0,1-.54,2.406,4.857,4.857,0,0,1-.855,1.512,3.1,3.1,0,0,1-1.151.838,3.7,3.7,0,0,1-1.439.268H7.645a.852.852,0,0,0-.668.4,2.086,2.086,0,0,0-.348,1l-.026.226L6.17,22l-.02.162a.182.182,0,0,1-.027.094.059.059,0,0,1-.045.026Z" transform="translate(0.58 -0.544)" fill="#253b80"/>
      <path id="Path_177" data-name="Path 177" d="M18.6,7.667q-.031.2-.071.4c-.911,4.676-4.027,6.292-8.006,6.292H8.5a.984.984,0,0,0-.973.833l-1.037,6.58-.294,1.865a.518.518,0,0,0,.512.6H10.3a.865.865,0,0,0,.854-.729l.035-.183.677-4.294.043-.236a.864.864,0,0,1,.854-.73H13.3c3.482,0,6.208-1.414,7-5.5a4.687,4.687,0,0,0-.72-4.139,3.436,3.436,0,0,0-.984-.758Z" transform="translate(-1.632 -2.022)" fill="#179bd7"/>
      <path id="Path_178" data-name="Path 178" d="M18.128,7.034a7.185,7.185,0,0,0-.886-.2,11.254,11.254,0,0,0-1.786-.13H10.043a.863.863,0,0,0-.853.73L8.038,14.731l-.033.213a.984.984,0,0,1,.973-.833H11c3.98,0,7.1-1.616,8.006-6.292.027-.138.05-.273.071-.4a4.855,4.855,0,0,0-.749-.316q-.1-.034-.2-.064Z" transform="translate(-2.111 -1.769)" fill="#222d65"/>
      <path id="Path_179" data-name="Path 179" d="M7.079,5.669a.861.861,0,0,1,.853-.73h5.413a11.254,11.254,0,0,1,1.786.13,7.184,7.184,0,0,1,1.09.26,4.928,4.928,0,0,1,.749.316,4.417,4.417,0,0,0-.937-3.97C15,.5,13.145,0,10.766,0H3.86a.987.987,0,0,0-.976.834L.007,19.069a.593.593,0,0,0,.585.686H4.857l1.071-6.792L7.079,5.669Z" transform="translate(0 0)" fill="#253b80"/>
    </g>
  </g>
</svg>
