<svg xmlns="http://www.w3.org/2000/svg" xmlns:xlink="http://www.w3.org/1999/xlink" width="71" height="49" viewBox="0 0 71 49">
  <defs>
    <linearGradient id="linear-gradient" x1="-2.251" y1="0.518" x2="0.982" y2="0.498" gradientUnits="objectBoundingBox">
      <stop offset="0" stop-color="#121e4e"/>
      <stop offset="1" stop-color="#1b338a"/>
    </linearGradient>
    <linearGradient id="linear-gradient-2" x1="-1.738" y1="0.511" x2="2.08" y2="0.492" xlink:href="#linear-gradient"/>
    <linearGradient id="linear-gradient-3" x1="0.147" y1="0.502" x2="2.623" y2="0.482" xlink:href="#linear-gradient"/>
    <linearGradient id="linear-gradient-4" x1="-1.967" y1="0.508" x2="4.38" y2="0.488" xlink:href="#linear-gradient"/>
  </defs>
  <g id="Group_17920" data-name="Group 17920" transform="translate(0 0.292)">
    <rect id="Rectangle_2340" data-name="Rectangle 2340" width="71" height="49" rx="2" transform="translate(0 -0.292)" fill="#fff"/>
    <g id="Group_17921" data-name="Group 17921" transform="translate(15.116 18.186)">
      <path id="Path_353" data-name="Path 353" d="M444.528,33.662H441.5c-.111-.533-.23-1.054-.324-1.579-.039-.218-.109-.3-.352-.3-1.215.016-2.43.012-3.644,0a.275.275,0,0,0-.313.227c-.167.5-.35,1-.538,1.49-.025.067-.11.159-.167.159-1.095.01-2.19.007-3.317.007.205-.494.4-.966.6-1.437l4.236-10.1a1.491,1.491,0,0,1,1.553-1.035h2.659c.088.411.176.815.261,1.221q1.042,4.993,2.084,9.986c.089.426.194.849.292,1.274Zm-3.965-4.467-.96-4.6-.039-.008-1.671,4.609Z" transform="translate(-404.289 -20.868)" fill="url(#linear-gradient)"/>
      <path id="Path_354" data-name="Path 354" d="M317.77,18.077c.4.074.8.135,1.2.227.361.083.715.2,1.1.309l-.567,2.652c-.506-.149-.99-.319-1.488-.429a4.221,4.221,0,0,0-2.059-.018,2.088,2.088,0,0,0-.775.412.707.707,0,0,0-.022,1.117,4.824,4.824,0,0,0,.829.6c.663.4,1.359.745,2,1.171a2.967,2.967,0,0,1,1.428,2.123,3.784,3.784,0,0,1-1.789,3.866,6.132,6.132,0,0,1-2.883.931,10.3,10.3,0,0,1-4.209-.477c-.092-.03-.181-.068-.271-.1a.747.747,0,0,1-.091-.056l.587-2.747c.234.1.453.2.677.294a5.864,5.864,0,0,0,3.321.414,2.361,2.361,0,0,0,.855-.357.905.905,0,0,0,.1-1.49,8,8,0,0,0-1.1-.721c-.584-.356-1.2-.659-1.757-1.057a2.946,2.946,0,0,1-1.318-2.095,3.582,3.582,0,0,1,1.4-3.307,5.868,5.868,0,0,1,3.121-1.211,1.649,1.649,0,0,0,.188-.045Z" transform="translate(-290.728 -18.077)" fill="url(#linear-gradient-2)"/>
      <path id="Path_355" data-name="Path 355" d="M63.532,21.052c-.17.409-.331.8-.495,1.189Q60.7,27.82,58.364,33.4a.309.309,0,0,1-.344.222c-.984-.008-1.968-.011-2.952,0-.209,0-.277-.07-.325-.257-.834-3.251-1.682-6.5-2.507-9.751a1.712,1.712,0,0,0-1.022-1.255,16.277,16.277,0,0,0-2.82-.912l-.125-.031c0-.377,0-.377.364-.377H53.8a1.5,1.5,0,0,1,1.561,1.283q.656,3.433,1.3,6.869c.019.1.04.2.069.341.045-.084.076-.131.1-.183q1.6-4.058,3.2-8.118a.26.26,0,0,1,.289-.2c1,.008,2,0,3,0C63.376,21.042,63.44,21.048,63.532,21.052Z" transform="translate(-48.269 -20.818)" fill="url(#linear-gradient-3)"/>
      <path id="Path_356" data-name="Path 356" d="M236.258,33.837l2.688-12.564h3.263c-.136.637-.269,1.263-.4,1.888q-1.109,5.185-2.212,10.371c-.051.24-.136.317-.385.312-.894-.017-1.789-.007-2.683-.007Z" transform="translate(-222.3 -21.036)" fill="url(#linear-gradient-4)"/>
    </g>
  </g>
</svg>
